<?xml version="1.0" encoding="UTF-8"?><svg id="Layer_1" xmlns="http://www.w3.org/2000/svg" viewBox="0 0 200 200"><defs><style>.cls-1{font-family:Congenial-Bold, Congenial;font-size:10.44px;font-weight:700;}.cls-1,.cls-2{fill:#fcfcfa;}</style></defs><path class="cls-2" d="M188.7,111.19c-2.65.81-5.46,1.24-8.38,1.24h0c-1.69,0-3.33-.15-4.94-.43-4.32-.75-8.32-2.47-11.75-4.92,0,0-.02-.01-.02-.02h0c-.47-.38-.96-.75-1.45-1.11,0,0,0,0,0,0-.01,0-.02-.02-.03-.02,0,0,0,0,0,0-2.16-1.59-4.47-2.99-6.9-4.19-3.53-1.75-7.32-3.06-11.3-3.86-.89-.18-1.78-.34-2.69-.46-2.14-.3-4.33-.46-6.56-.46-9.76,0-18.82,3.01-26.29,8.16v-17.7c0-2.81-1.06-5.37-2.8-7.31,8.9-.96,15.82-8.49,15.82-17.64,0-.02,0-.04,0-.06,0-3.07-2.68-5.46-5.74-5.22-.03,0-.07,0-.1,0,.05.53.07,1.07.07,1.61,0,8.88-6.53,16.24-15.04,17.54,3.05-3.37,3.79-8.44,1.47-12.64,0-.01-.01-.02-.02-.03-.92-1.66-3.08-2.16-4.66-1.11-.02.01-.03.02-.05.03.18.27.36.55.52.85,2.43,4.41,1.5,9.75-1.92,13.11-.79.11-1.56.29-2.29.56-.14.05-.28.11-.42.17,1.39-2.88.58-6.42-2.08-8.38,0,0-.01,0-.02-.01-.95-.69-2.29-.42-2.91.58,0,.01-.01.02-.02.03.17.1.34.22.51.34,2.92,2.16,3.61,6.22,1.62,9.21.35-.37.76-.66,1.19-.87-3.05,1.95-5.07,5.36-5.07,9.25,0,6.06,4.91,10.97,10.96,10.97,1.5,0,2.92-.3,4.22-.84v7.69c-7.51-5.22-16.63-8.28-26.47-8.28-2.22,0-4.41.16-6.56.46-.91.13-1.8.28-2.69.46-3.97.8-7.76,2.11-11.3,3.86-2.43,1.2-4.74,2.6-6.9,4.19,0,0,0,0,0,0l-.03.02s0,0,0,0c-.49.36-.97.73-1.45,1.11h0s-.02.02-.02.02c-3.43,2.46-7.42,4.17-11.75,4.92-1.61.28-3.25.43-4.94.43h0c-2.91,0-5.73-.44-8.38-1.24-1.57-.48-3.09-1.09-4.54-1.82,1.5,2.17,3.29,4.12,5.31,5.8h0c3.54,2.94,7.79,5.04,12.46,6.01,1.49.31,3.03.5,4.6.57.01,0,.02,0,.04,0,.29.01.57.02.86.02.12,0,.25,0,.37,0,5.24,0,10.15-1.4,14.37-3.85-1.74,3.36-4.52,6.1-7.91,7.78,1.65.51,3.4.78,5.22.78,3.19,0,6.18-.84,8.77-2.32-.5,2.24-1.69,4.23-3.33,5.72,2.97.6,6.04.91,9.18.91,14.02,0,26.6-6.21,35.12-16.04,1.18-1.35,2.27-2.78,3.29-4.27,1.07,1.56,2.22,3.05,3.46,4.46,8.51,9.71,21.01,15.84,34.94,15.84,3.14,0,6.21-.31,9.18-.91-1.64-1.49-2.83-3.48-3.33-5.72,2.59,1.47,5.58,2.32,8.77,2.32,1.81,0,3.57-.27,5.22-.78-3.4-1.68-6.18-4.42-7.91-7.78,4.22,2.45,9.13,3.85,14.37,3.85.12,0,.25,0,.37,0,.29,0,.57,0,.86-.02.01,0,.02,0,.04,0,1.57-.07,3.1-.26,4.6-.57,4.67-.97,8.92-3.07,12.46-6.01h0c2.02-1.68,3.81-3.63,5.31-5.8-1.45.73-2.96,1.34-4.54,1.82Z"/><circle class="cls-2" cx="119.78" cy="50.78" r="4.19" transform="translate(-8.46 28.88) rotate(-13.28)"/><path class="cls-2" d="M100.82,59.09c1.25-.69,1.71-2.26,1.02-3.52-.69-1.25-2.26-1.71-3.52-1.02s-1.71,2.26-1.02,3.52c.69,1.25,2.26,1.71,3.52,1.02Z"/><path class="cls-2" d="M87.56,67.39c.71.53,1.71.37,2.24-.34.53-.71.38-1.71-.34-2.24-.71-.53-1.71-.37-2.24.34-.53.71-.37,1.71.34,2.24Z"/><path class="cls-2" d="M46,151.85l.6-1.75h12.18l-.38,1.75-3.28.49-.44,1.2-7.1,25.13c-.98,2.62-1.53,3.77-2.24,4.97-.98,1.58-4.04,5.68-9.72,5.68-4.59,0-6.34-2.4-6.34-4.59,0-.33,0-.82.33-1.42.71-1.37,2.24-1.58,2.68-1.58.33,0,.76.05,1.31.38.76.44,1.8,1.48,1.91,3.5.05.49.05,1.04.16,1.37.11.27.33.49.87.49.6,0,1.26-.27,1.75-.6,1.75-1.26,2.57-3.82,3.17-5.74l7.7-27.21.49-1.53-3.66-.55Z"/><path class="cls-2" d="M53.44,173.38c2.02-6.01,7.21-11.86,13.93-11.86,1.53,0,3.06.33,4.43,1.09,2.02,1.09,5.35,4.1,5.35,9.89-.05,5.19-2.57,9.01-3.61,10.43-2.73,3.66-6.99,6.5-11.64,6.5-1.64,0-3.33-.38-4.75-1.2-1.97-1.15-4.7-3.99-4.64-9.45,0-.98.11-3,.93-5.41ZM57.48,184.42c.33.98,1.42,3.17,4.53,3.17,2.84,0,5.52-1.86,7.81-7.16,1.97-4.48,2.62-9.07,2.62-10.76,0-1.86-.55-4.15-1.97-5.3-1.09-.82-2.4-.87-2.9-.87-1.04,0-1.91.27-2.84.76-2.24,1.2-3.88,3.61-5.68,8.58-.44,1.15-1.86,4.86-1.86,8.9-.05.44-.05,1.53.27,2.68Z"/><path class="cls-2" d="M83.79,170.16c.11-.27.49-1.04.49-1.97,0-1.64-1.2-1.8-1.8-1.8-.71,0-1.48.27-1.69.38l-.55-1.8,8.69-3.82c.38,1.37.76,2.51.76,3.82,0,1.15-.22,2.08-.98,4.26l-3.72,10.16c-.38,1.09-.71,2.13-.71,3.22,0,.71.27,3.06,2.9,3.06,1.69,0,3.77-1.15,5.95-4.37,1.53-2.19,2.02-3.77,2.79-6.23l2.46-8.91c.49-2.08.44-2.08.71-4.1h5.63c-.82,1.58-1.2,2.19-2.08,5.08l-5.68,20.38c-.98,2.84-1.86,5.14-4.04,7.21-1.48,1.48-5.08,4.21-10.65,4.21-.44,0-3.28.05-5.03-1.09-1.04-.66-1.64-1.58-1.64-2.9,0-1.42,1.15-2.29,2.68-2.29.66,0,1.86.16,2.68,1.48.98,1.53.6,3.06,2.46,3.06.49,0,.98-.05,1.91-.33,1.26-.38,2.73-.93,4.48-3.33,1.69-2.4,2.24-4.37,3-7.1.27-.98.55-2.02.87-3-.49.6-.98,1.26-1.53,1.86-.6.66-3.22,3.77-6.94,3.77-.38,0-1.26-.05-2.19-.44-1.26-.6-3.33-2.13-3.33-5.46,0-1.86.71-3.72,1.31-5.57l2.79-7.43Z"/><path class="cls-2" d="M114.32,155.3c.22-.82.22-.93.22-1.48,0-2.02-1.64-2.13-3.22-2.08l.55-1.69,9.78-2.84-1.37,3.82-9.07,29.72c-.11.22-.6,1.53-.6,2.62,0,.27,0,1.09.49,1.53.27.22.55.27.93.27.98,0,1.91-.71,3.55-2.29l.66,1.8c-.55.66-1.09,1.26-1.75,1.86-.44.44-2.35,2.35-4.92,2.35-.22,0-.93-.05-1.53-.33-.93-.38-2.13-1.42-2.13-3.93,0-1.42.38-2.73.82-4.1l7.59-25.24Z"/><path class="cls-2" d="M125.21,169.77c.05-.16.33-.93.33-1.64-.05-1.64-1.26-1.86-1.91-1.86-.49,0-.82.11-1.69.44l.55-2.29,8.36-3.11c.11.27.38,1.09.38,2.02,0,1.86-.98,4.97-1.04,5.08l-4.48,13.28c-.27,1.15-.55,2.19-.55,2.62s.33,1.26,1.37,1.26c1.09,0,2.46-.87,3.33-1.48l.44,1.86-.98.82c-1.42,1.2-3,2.19-4.97,2.19-.27,0-1.09-.05-1.75-.44-1.31-.71-2.08-2.4-2.08-3.93,0-1.04.22-1.86.93-3.71l3.77-11.09ZM131.33,150.11c.33,0,1.09.05,1.86.55.44.27,1.42,1.09,1.42,2.73,0,1.91-1.48,3.33-3.33,3.33-.82,0-1.31-.27-1.58-.44-1.31-.71-2.02-2.35-1.64-3.82.22-.66,1.15-2.35,3.28-2.35Z"/><path class="cls-2" d="M137.49,165.13l.55-2.57h3.33l.87-2.62c.27-.71.55-1.48.82-2.19.49-1.09,2.08-5.24,5.3-7.92,1.53-1.31,3.39-2.29,5.57-2.29,3,0,3.82,1.86,3.82,3.11,0,.55-.16.87-.22,1.04-.44.82-1.42,1.37-2.35,1.37-1.91,0-2.95-1.75-3.28-2.19-.33-.49-.49-.55-.71-.55-.49,0-1.04.49-1.15.6-1.48,1.2-2.19,3.5-3.22,7.32l-1.09,4.37h4.59l-.55,2.57h-4.7c-.98,3.77-1.97,7.59-2.95,11.36-1.42,5.63-1.75,6.12-2.4,11.96h-5.95c.6-1.64,1.26-3.33,1.75-4.97.71-2.29,1.26-4.53,1.86-6.83.55-1.91,1.09-3.77,1.64-5.74.55-1.91,1.04-3.88,1.58-5.85h-3.11Z"/><path class="cls-2" d="M169.08,183.1c-3.44,3.11-7.1,6.34-11.96,6.28-2.24,0-4.21-.66-5.79-2.19-1.09-1.04-2.79-3.33-2.79-7.21,0-4.7,2.51-9.67,5.74-13.06.82-.82,5.19-5.35,10.43-5.35,1.2,0,1.97.22,2.4.38.98.38,3.17,1.58,3.17,4.7,0,2.35-1.37,4.15-1.86,4.75-2.79,3.55-6.88,5.57-14.97,9.72.33,1.04.55,1.53.82,1.97,1.15,1.8,3.22,2.84,5.35,2.84.55,0,1.53-.05,2.79-.49,2.19-.82,3.82-2.24,5.52-3.77l1.15,1.42ZM155.75,177.97c1.31-.6,4.92-2.29,7.87-5.46.44-.49,2.68-2.84,2.68-5.52,0-.93-.44-3.17-3.11-3.17-1.8,0-4.53,1.09-6.83,4.59-1.15,1.75-2.51,4.81-2.95,6.72-.22,1.15-.27,1.8-.27,4.04.87-.38,1.75-.82,2.62-1.2Z"/><text class="cls-1" transform="translate(171.84 158.48)"><tspan x="0" y="0">TM</tspan></text></svg>